<svg id="Capa_1" enable-background="new 0 0 509.261 509.261" height="512" viewBox="0 0 509.261 509.261" width="512" xmlns="http://www.w3.org/2000/svg"><g id="XMLID_431_"><path id="XMLID_429_" d="m383.498 509.261c-13.786 0-34.424-.015-65.391-.052l-15-.018.036-30 15 .018c34.342.042 86.115.079 91.583.016 17.12-1.608 30.471-16.322 30.471-33.68 0-18.563-15.102-33.664-33.664-33.664h-1.103c-35.104 0-63.664-28.56-63.664-63.664v-2.087c0-35.104 28.56-63.664 63.664-63.664h64.766v30h-64.766c-18.562 0-33.664 15.102-33.664 33.664v2.087c0 18.562 15.102 33.664 33.664 33.664h1.103c35.104 0 63.664 28.56 63.664 63.664 0 33.001-25.668 60.944-58.436 63.616-.541.045-1.218.1-28.263.1z" fill="#6e6e87"/><path id="XMLID_450_" d="m305.65 320.033c-.171-35.729-21.179-88.66-61.186-121.132-1.691-1.371-3.347-2.834-4.92-4.35-15.472-14.907-20.088-37.917-11.76-58.623 3.662-9.105 5.519-18.698 5.519-28.511v-1.555c0-19.06-7.422-36.979-20.903-50.46-8.276-8.268-18.023-16.277-33.149-19.454-4.164-6.067-11.646-16.282-21.317-24.141-18.562-15.084-34.548-12.984-44.688-8.567l-5.566 2.425 10.308 50.584c-12.696 9.685-37.87 28.407-47.06 33.086l-5.045 2.569 5.881 30.037.197.543c1.173 3.244 1.805 5.649 2.362 7.771 1.235 4.704 2.302 8.767 7.538 14.221 2.863 2.977 7.174 5.502 13.569 7.948 9.913 3.792 15.553 14.009 13.411 24.295-11.654 55.951-23.033 112.223-23.033 131.89v119.058h-4.741c-20.414 0-37.022 16.608-37.022 37.022s16.608 37.022 37.022 37.022h217.083l18.387-.002 7.414-22.498z" fill="#8a8aa9"/><path id="XMLID_631_" d="m305.65 320.033c-.171-35.729-21.179-88.66-61.186-121.132-1.691-1.371-3.347-2.834-4.92-4.35-15.472-14.907-20.088-37.917-11.76-58.623 3.662-9.105 5.519-18.698 5.519-28.511v-1.555c0-19.06-7.422-36.979-20.903-50.46-8.276-8.268-18.023-16.277-33.149-19.454v465.764h118.899l18.387-.002 7.414-22.498z" fill="#6e6e87"/><path id="XMLID_430_" d="m135.387 318.682h30v132.043h-30z" fill="#515165"/><path id="XMLID_436_" d="m327.63 509.146-244.324.065c-24.396 0-44.243-19.847-44.243-44.243s19.848-44.243 44.243-44.243h52.081v-12.216c0-38.512 31.332-69.843 69.843-69.843h15v30h-15c-21.97 0-39.843 17.874-39.843 39.843v42.216h-82.081c-7.854 0-14.243 6.389-14.243 14.243s6.39 14.243 14.243 14.243h240.644z" fill="#6e6e87"/><g fill="#515165"><path id="XMLID_635_" d="m179.251 378.339c6.982-6.02 16.059-9.673 25.979-9.673h15v-30h-15c-9.18 0-17.943 1.798-25.979 5.031z"/><path id="XMLID_636_" d="m179.251 509.185 148.379-.039-3.68-29.935h-144.699z"/></g></g></svg>