<svg height="511pt" viewBox="0 -31 511.99957 511" width="511pt" xmlns="http://www.w3.org/2000/svg"><path d="m46.003906 300.496094c-8.285156 0-15-6.71875-15-15v-269.996094c0-8.285156 6.714844-15 15-15 29.117188 0 56.851563 9.128906 80.199219 26.398438 22.875 16.917968 39.570313 40.105468 48.28125 67.054687 2.261719 6.996094-.882813 14.601563-7.421875 17.957031-65.417969 33.59375-106.058594 100.109375-106.058594 173.585938 0 8.285156-6.714844 15-15 15zm0 0" fill="#ff9100"/><path d="m465.996094 300.496094c-8.285156 0-15-6.71875-15-15 0-73.480469-40.640625-139.992188-106.058594-173.585938-6.542969-3.355468-9.683594-10.960937-7.421875-17.957031 8.710937-26.949219 25.402344-50.136719 48.277344-67.054687 23.347656-17.269532 51.082031-26.398438 80.203125-26.398438 8.28125 0 15 6.714844 15 15v269.996094c0 8.285156-6.714844 15-15 15zm0 0" fill="#ff641a"/><path d="m447.046875 166.597656c-21.589844-34.621094-52.160156-62.757812-88.410156-81.371094-4.167969-2.136718-8.378907-4.148437-12.636719-6.007812-8.503906-3.726562-33.765625 49.058594-32 50.277344 2.21875 1.539062-16.453125-65.515625-28-67.039063-9.859375-1.308593-19.871094-1.957031-30-1.957031s-20.140625.648438-30 1.957031c-10.164062 1.339844-13.171875 56.324219-23 59.039063-10.203125 2.824218-27.210938-46.566406-37-42.277344-4.257812 1.859375-8.46875 3.871094-12.636719 6.007812-36.25 18.613282-66.820312 46.75-88.410156 81.371094-22.210937 35.617188-33.949219 76.726563-33.949219 118.898438 0 59.527344 23.128906 103.71875 68.738282 131.316406 37.441406 22.660156 88.546874 33.679688 156.257812 33.679688 67.707031 0 118.816406-11.019532 156.257812-33.679688 45.609376-27.597656 68.738282-71.789062 68.738282-131.316406 0-42.171875-11.738282-83.28125-33.949219-118.898438zm0 0" fill="#fdbf00"/><path d="m412.257812 416.8125c45.609376-27.597656 68.738282-71.789062 68.738282-131.316406 0-42.171875-11.738282-83.28125-33.949219-118.898438-21.589844-34.621094-52.160156-62.757812-88.410156-81.371094-4.167969-2.136718-8.378907-4.148437-12.636719-6.007812-7.804688-3.421875-29.71875 40.746094-31.910156 48.984375-1.339844-9.273437-17.636719-64.367187-28.089844-65.746094-9.859375-1.308593-19.871094-1.957031-30-1.957031v389.992188c67.707031 0 118.816406-11.019532 156.257812-33.679688zm0 0" fill="#ff9100"/><path d="m256 330.492188c-24.8125 0-45-20.183594-45-44.996094s20.1875-45 45-45 45 20.1875 45 45-20.1875 44.996094-45 44.996094zm0-59.996094c-8.269531 0-15 6.726562-15 15 0 8.269531 6.730469 15 15 15s15-6.730469 15-15c0-8.273438-6.726562-15-15-15zm0 0" fill="#7c8388"/><path d="m196 240.496094c0 8.285156-6.714844 15-15 15-8.28125 0-15-6.714844-15-15s6.71875-15 15-15c8.285156 0 15 6.714844 15 15zm0 0" fill="#575f64"/><path d="m346 240.496094c0 8.285156-6.71875 15-15 15-8.285156 0-15-6.714844-15-15s6.714844-15 15-15c8.28125 0 15 6.714844 15 15zm0 0" fill="#32393f"/><path d="m226 62.457031v73.039063c0 16.570312-13.429688 30-30 30s-30-13.429688-30-30v-56.277344c19.210938-8.421875 39.28125-14.03125 60-16.761719zm0 0" fill="#ff9100"/><path d="m346 79.21875v56.277344c0 16.570312-13.429688 30-30 30s-30-13.429688-30-30v-73.039063c20.71875 2.730469 40.789062 8.339844 60 16.761719zm0 0" fill="#ff641a"/><path d="m316 330.492188c-8.285156 0-15 6.71875-15 15 0 8.273437-6.730469 15-15 15-8.273438 0-15-6.726563-15-15v-29.996094c0-8.285156-6.714844-15-15-15s-15 6.714844-15 15v29.996094c0 8.273437-6.730469 15-15 15s-15-6.726563-15-15c0-8.28125-6.714844-15-15-15-8.28125 0-15 6.71875-15 15 0 24.8125 20.1875 45 45 45 11.515625 0 22.03125-4.351563 30-11.492188 7.96875 7.140625 18.484375 11.492188 30 11.492188 24.8125 0 45-20.1875 45-45 0-8.28125-6.714844-15-15-15zm0 0" fill="#7c8388"/><path d="m405.996094 300.5c-6.300782 0-12.164063-4-14.246094-10.308594-2.59375-7.867187 1.683594-16.347656 9.550781-18.941406l91-30c7.863281-2.59375 16.347657 1.679688 18.941407 9.550781 2.59375 7.867188-1.683594 16.347657-9.550782 18.941407l-91 30c-1.554687.511718-3.140625.757812-4.695312.757812zm0 0" fill="#e0d2cd"/><path d="m497 390.496094c-1.558594 0-3.140625-.242188-4.699219-.757813l-91-30c-7.867187-2.59375-12.144531-11.074219-9.550781-18.941406 2.597656-7.867187 11.078125-12.136719 18.941406-9.550781l91 30c7.867188 2.59375 12.144532 11.074218 9.550782 18.941406-2.082032 6.308594-7.945313 10.308594-14.242188 10.308594zm0 0" fill="#e0d2cd"/><path d="m15 390.496094c-6.296875 0-12.160156-4-14.242188-10.308594-2.59375-7.867188 1.683594-16.347656 9.550782-18.941406l90.996094-30c7.867187-2.589844 16.351562 1.683594 18.945312 9.550781 2.589844 7.867187-1.683594 16.347656-9.550781 18.941406l-91 30c-1.558594.515625-3.140625.757813-4.699219.757813zm0 0" fill="#f5efea"/><path d="m106.003906 300.5c-1.554687 0-3.136718-.246094-4.699218-.757812l-90.996094-30c-7.867188-2.59375-12.144532-11.074219-9.550782-18.941407 2.59375-7.871093 11.078126-12.140625 18.941407-9.550781l91 30c7.867187 2.59375 12.144531 11.074219 9.550781 18.941406-2.082031 6.308594-7.945312 10.308594-14.246094 10.308594zm0 0" fill="#f5efea"/><path d="m256 330.492188c-24.8125 0-45-20.183594-45-44.996094s20.1875-45 45-45 45 20.1875 45 45-20.1875 44.996094-45 44.996094zm0 0" fill="#575f64"/><path d="m316 330.492188c-8.285156 0-15 6.71875-15 15 0 8.273437-6.730469 15-15 15-8.273438 0-15-6.726563-15-15v-29.996094c0-8.285156-6.714844-15-15-15s-15 6.714844-15 15v29.996094c0 8.273437-6.730469 15-15 15s-15-6.726563-15-15c0-8.28125-6.714844-15-15-15-8.28125 0-15 6.71875-15 15 0 24.8125 20.1875 45 45 45 11.515625 0 22.03125-4.351563 30-11.492188 7.96875 7.140625 18.484375 11.492188 30 11.492188 24.8125 0 45-20.1875 45-45 0-8.28125-6.714844-15-15-15zm0 0" fill="#575f64"/><g fill="#32393f"><path d="m286 390.492188c24.8125 0 45-20.1875 45-45 0-8.28125-6.71875-15-15-15-8.285156 0-15 6.71875-15 15 0 8.273437-6.730469 15-15 15-8.273438 0-15-6.726563-15-15v-29.996094c0-8.285156-6.714844-15-15-15v78.503906c7.96875 7.140625 18.484375 11.492188 30 11.492188zm0 0"/><path d="m301 285.496094c0-24.8125-20.1875-45-45-45v89.996094c24.8125 0 45-20.183594 45-44.996094zm0 0"/></g></svg>