<svg height="480pt" viewBox="0 -48 480 480" width="480pt" xmlns="http://www.w3.org/2000/svg"><path d="m0 0h480v320h-480zm0 0" fill="#edeff1"/><path d="m424 312h-368v-8c0-22.054688-17.945312-40-40-40h-8v-208h8c22.054688 0 40-17.945312 40-40v-8h368v8c0 22.054688 17.945312 40 40 40h8v208h-8c-22.054688 0-40 17.945312-40 40zm-352.566406-16h337.140625c3.515625-24.496094 22.9375-43.910156 47.433593-47.433594v-177.132812c-24.496093-3.511719-43.910156-22.9375-47.433593-47.433594h-337.140625c-3.523438 24.496094-22.9375 43.910156-47.433594 47.433594v177.140625c24.496094 3.515625 43.910156 22.929687 47.433594 47.425781zm0 0" fill="#6e83b7"/><path d="m192 56h96v16h-96zm0 0" fill="#6e83b7"/><path d="m112 96h256v16h-256zm0 0" fill="#d3d3d3"/><path d="m112 136h256v16h-256zm0 0" fill="#d3d3d3"/><path d="m112 176h256v16h-256zm0 0" fill="#d3d3d3"/><path d="m112 216h96v16h-96zm0 0" fill="#6e83b7"/><path d="m347.960938 340.039062-43.960938 43.960938v-40h-32l39.960938-39.960938zm0 0" fill="#ffb0aa"/><path d="m388.078125 340.078125 43.921875 43.921875v-40h32l-39.921875-39.921875zm0 0" fill="#ffb0aa"/><path d="m440 276c0 39.765625-32.234375 72-72 72s-72-32.234375-72-72 32.234375-72 72-72 72 32.234375 72 72zm0 0" fill="#ffe352"/><path d="m368 340c-35.289062 0-64-28.710938-64-64s28.710938-64 64-64 64 28.710938 64 64-28.710938 64-64 64zm0-120c-30.871094 0-56 25.128906-56 56s25.128906 56 56 56 56-25.128906 56-56-25.128906-56-56-56zm0 0" fill="#ffb236"/><g fill="#6e83b7"><path d="m368 303.878906c4.664062 0 7.894531 4.121094 14.425781 4.121094 4.644531 0 10.300781-3.65625 10.300781-8.984375 0-16.480469-14.292968-24.71875-24.71875-24.71875-10.421874 0-24.71875 8.238281-24.71875 24.71875 0 5.320313 5.65625 8.984375 10.304688 8.984375 6.511719 0 9.742188-4.121094 14.40625-4.121094zm0 0"/><path d="m341.777344 266.265625c2.949218 3.230469 5.933594 11.75 2.703125 14.703125-3.234375 2.953125-11.449219-.785156-14.402344-4.007812-2.949219-3.234376-2.726563-8.242188.507813-11.191407 3.222656-2.960937 8.238281-2.738281 11.191406.496094zm0 0"/><path d="m344.566406 257.800781c1.9375 5.351563 9.9375 13.933594 15.289063 12.007813 5.351562-1.9375 6.023437-13.648438 4.089843-19-1.9375-5.351563-7.839843-8.121094-13.183593-6.191406-5.355469 1.925781-8.121094 7.832031-6.195313 13.183593zm0 0"/><path d="m394.222656 266.265625c-2.949218 3.230469-5.933594 11.75-2.703125 14.703125 3.234375 2.953125 11.449219-.785156 14.402344-4.007812 2.949219-3.234376 2.726563-8.242188-.507813-11.191407-3.222656-2.960937-8.238281-2.738281-11.191406.496094zm0 0"/><path d="m391.433594 257.800781c-1.9375 5.351563-9.9375 13.933594-15.289063 12.007813-5.351562-1.9375-6.023437-13.648438-4.089843-19 1.9375-5.351563 7.839843-8.121094 13.183593-6.191406 5.355469 1.925781 8.121094 7.832031 6.195313 13.183593zm0 0"/></g></svg>