<svg height="480pt" viewBox="0 -24 480 480" width="480pt" xmlns="http://www.w3.org/2000/svg"><path d="m160 0c-13.257812 0-24 10.742188-24 24v336c0 13.257812-10.742188 24-24 24h296c13.257812 0 24-10.742188 24-24v-336c0-13.257812 10.742188-24 24-24zm0 0" fill="#edeff1"/><path d="m432 24c0-13.257812 10.742188-24 24-24s24 10.742188 24 24zm0 0" fill="#d3d3d3"/><path d="m120 384c-13.257812 0-24-10.742188-24-24h288c0 13.257812 10.742188 24 24 24zm0 0" fill="#d3d3d3"/><path d="m0 256v16h32v112l136 16 136-16v-112h32v-16zm0 0" fill="#6e83b7"/><path d="m32 272h272v8h-272zm0 0" fill="#466089"/><path d="m288 376c0-5.902344-3.238281-11.007812-8-13.785156v-106.214844h-16v106.214844c-4.761719 2.769531-8 7.875-8 13.785156 0 5.542969 2.824219 10.433594 7.121094 13.304688l-7.121094 42.695312h32l-7.121094-42.695312c4.296875-2.871094 7.121094-7.761719 7.121094-13.304688zm0 0" fill="#ffe352"/><g fill="#6e83b7"><path d="m284 83.878906c4.664062 0 7.894531 4.121094 14.425781 4.121094 4.644531 0 10.300781-3.65625 10.300781-8.984375 0-16.480469-14.292968-24.71875-24.71875-24.71875-10.421874 0-24.71875 8.238281-24.71875 24.71875 0 5.320313 5.65625 8.984375 10.304688 8.984375 6.511719 0 9.742188-4.121094 14.40625-4.121094zm0 0"/><path d="m257.777344 46.265625c2.949218 3.230469 5.933594 11.75 2.703125 14.703125-3.234375 2.953125-11.449219-.785156-14.402344-4.007812-2.949219-3.234376-2.726563-8.242188.507813-11.191407 3.222656-2.960937 8.238281-2.738281 11.191406.496094zm0 0"/><path d="m260.566406 37.800781c1.9375 5.351563 9.9375 13.933594 15.289063 12.007813 5.351562-1.9375 6.023437-13.648438 4.089843-19-1.9375-5.351563-7.839843-8.121094-13.183593-6.191406-5.355469 1.925781-8.121094 7.832031-6.195313 13.183593zm0 0"/><path d="m310.222656 46.265625c-2.949218 3.230469-5.933594 11.75-2.703125 14.703125 3.234375 2.953125 11.449219-.785156 14.402344-4.007812 2.949219-3.234376 2.726563-8.242188-.507813-11.191407-3.222656-2.960937-8.238281-2.738281-11.191406.496094zm0 0"/><path d="m307.433594 37.800781c-1.9375 5.351563-9.9375 13.933594-15.289063 12.007813-5.351562-1.9375-6.023437-13.648438-4.089843-19 1.9375-5.351563 7.839843-8.121094 13.183593-6.191406 5.355469 1.925781 8.121094 7.832031 6.195313 13.183593zm0 0"/></g><path d="m164 112h240v16h-240zm0 0" fill="#d3d3d3"/><path d="m164 168h240v16h-240zm0 0" fill="#d3d3d3"/><path d="m164 224h240v16h-240zm0 0" fill="#d3d3d3"/></svg>