<svg id="Capa_1" enable-background="new 0 0 512 512" height="512" viewBox="0 0 512 512" width="512" xmlns="http://www.w3.org/2000/svg"><g><path d="m256 0h-256v271h256 256v-271z" fill="#f0f7ff"/><path d="m256 0h256v271h-256z" fill="#dfe7f4"/><path d="m256 211c-82.705 0-150 67.295-150 150s67.295 151 150 151 150-68.295 150-151-67.295-150-150-150z" fill="#ffe666"/><path d="m406 361c0-82.705-67.295-150-150-150v301c82.705 0 150-68.295 150-151z" fill="#fabe2c"/><path d="m196 301h30v30h-30z" fill="#47568c"/><path d="m286 301h30v30h-30z" fill="#29376d"/><path d="m165.441 88.202-37.441 12.155v-39.357h-30v39.357l-37.441-12.155-9.258 28.535 37.428 12.151-23.131 31.824 24.257 17.637 23.145-31.841 23.145 31.841 24.257-17.637-23.131-31.824 37.428-12.151z" fill="#fabe2c"/><path d="m460.699 116.737-9.258-28.535-37.441 12.155v-39.357h-30v39.357l-37.441-12.155-9.258 28.535 37.428 12.151-23.131 31.824 24.257 17.637 23.145-31.841 23.145 31.841 24.257-17.637-23.131-31.824z" fill="#ff9100"/><path d="m317.699 116.737-9.258-28.535-37.441 12.155v-39.357h-15-15v39.357l-37.441-12.155-9.258 28.535 37.428 12.151-23.131 31.824 24.257 17.637 23.145-31.841 23.145 31.841 24.257-17.637-23.131-31.824z" fill="#fabe2c"/><path d="m303.402 160.712-23.131-31.824 37.428-12.151-9.258-28.535-37.441 12.155v-39.357h-15v85.508l23.145 31.841z" fill="#ff9100"/><path d="m302.025 376h-46.025-48.474l-36.129 15c12.561 35.354 46.247 60 84.602 60s72.041-24.646 84.602-60z" fill="#f37"/><path d="m340.602 391-38.577-15h-46.025v75c38.355 0 72.041-24.646 84.602-60z" fill="#cd0000"/><path d="m256 361h-91.831c3.994 17.842 2.752 17.402 7.229 30h84.602 84.602c4.413-12.418 3.127-11.671 7.229-30z" fill="#f0f7ff"/><path d="m347.831 361h-91.831v30h84.602c4.413-12.419 3.127-11.671 7.229-30z" fill="#dfe7f4"/></g></svg>