<svg height="512pt" viewBox="0 -24 512.00063 512" width="512pt" xmlns="http://www.w3.org/2000/svg"><path d="m72.820312 385.601562-.207031-.777343c-3.632812-13.554688 4.410157-27.484375 17.964844-31.117188l111.917969-29.988281 13.363281 49.859375-111.921875 29.988281c-13.554688 3.632813-27.484375-4.410156-31.117188-17.964844zm0 0" fill="#ff8500"/><path d="m96.355469 387.242188c-8.96875 2.402343-18.09375-.226563-24.390625-6.15625.136718 1.375.382812 2.753906.75 4.125 3.691406 13.769531 17.84375 21.941406 31.613281 18.253906l111.53125-29.886719-4.269531-15.925781zm0 0" fill="#ff6d00"/><path d="m503.882812 385.601562.207032-.777343c3.632812-13.554688-4.410156-27.484375-17.964844-31.117188l-111.917969-29.988281-13.363281 49.859375 111.921875 29.988281c13.554687 3.632813 27.484375-4.410156 31.117187-17.964844zm0 0" fill="#ff8500"/><path d="m485.738281 353.601562-111.53125-29.882812-4.429687 16.527344 105.757812 28.339844c13.582032 3.636718 21.707032 17.457031 18.386719 31.042968 4.769531-3.355468 8.4375-8.339844 10.066406-14.414062 3.6875-13.769532-4.484375-27.921875-18.25-31.613282zm0 0" fill="#ff6d00"/><path d="m360.570312 253.003906h-101.707031l-93.636719-93.636718c-21.90625-21.90625-57.421874-21.90625-79.328124 0-9.214844 9.214843-14.535157 20.839843-16 32.847656l-62.707032 9.484375c-4.816406.730469-8.023437 5.367187-7 10.128906l17.554688 81.972656c2.035156 9.503907 11.136718 15.761719 20.734375 14.257813l88.167969-28.617188 25.050781 25.050782c-2.523438 7.53125-3.90625 15.578124-3.90625 23.957031v4.601562c0 41.667969 33.777343 75.445313 75.445312 75.445313h137.332031c41.667969 0 75.449219-33.777344 75.449219-75.445313v-4.601562c0-41.667969-33.78125-75.445313-75.449219-75.445313zm0 0" fill="#fa0"/><path d="m247.074219 253.003906h11.789062l-93.636719-93.636718c-20.867187-20.867188-54.070312-21.839844-76.109374-2.953126 19.804687-7.128906 42.820312-2.765624 58.6875 13.105469l72.324218 72.320313c7.144532 7.144531 16.839844 11.164062 26.945313 11.164062zm0 0" fill="#ff8500"/><path d="m427.550781 320.859375c-6.238281 0-12.511719-.851563-18.6875-2.566406-8.914062-2.476563-14.132812-11.710938-11.65625-20.625 2.476563-8.914063 11.710938-14.132813 20.625-11.65625 9.242188 2.570312 18.929688 1.382812 27.277344-3.332031 8.351563-4.71875 14.363281-12.40625 16.933594-21.648438 1.8125-6.523438 1.753906-13.378906-.164063-19.820312-2.640625-8.867188 2.40625-18.199219 11.273438-20.839844 8.859375-2.640625 18.195312 2.40625 20.835937 11.273437 3.71875 12.488281 3.835938 25.753907.332031 38.359375-4.960937 17.863282-16.585937 32.722656-32.726562 41.84375-10.5625 5.96875-22.230469 9.011719-34.042969 9.011719zm0 0" fill="#fa0"/><path d="m493.988281 231.644531c-2.367187-7.945312-10.105469-12.804687-18.066406-11.832031 1.769531 1.855469 3.144531 4.132812 3.925781 6.753906 3.722656 12.488282 3.835938 25.753906.335938 38.359375-4.964844 17.863281-16.589844 32.722657-32.730469 41.84375-4.222656 2.386719-8.621094 4.296875-13.136719 5.738281.554688 2.578126.984375 5.203126 1.265625 7.871094 9.035157-1.066406 17.855469-3.921875 26.011719-8.53125 16.140625-9.121094 27.765625-23.980468 32.730469-41.84375 3.5-12.605468 3.382812-25.871094-.335938-38.359375zm0 0" fill="#ff8500"/><path d="m377.054688 133.664062-42.902344 24.769532c-12.523438 7.230468-28.535156 2.941406-35.761719-9.582032l-.308594-.53125c-3.5-6.0625-1.421875-13.816406 4.640625-17.316406l54.597656-31.523437zm0 0" fill="#ffc5b2"/><path d="m368.90625 119.546875-45.042969 26.003906c-8.660156 5-18.957031 4.570313-26.972656-.222656.285156 1.082031.703125 2.148437 1.292969 3.164063 7.34375 12.71875 23.605468 17.078124 36.324218 9.734374l42.546876-24.5625zm0 0" fill="#ffa6a0"/><path d="m226.738281 244.578125c-2.488281 0-4.929687-1.21875-6.390625-3.457031-2.292968-3.527344-1.296875-8.242188 2.226563-10.539063l277.65625-180.785156c3.523437-2.292969 8.242187-1.296875 10.535156 2.226563 2.296875 3.523437 1.300781 8.242187-2.226563 10.535156l-277.652343 180.785156c-1.285157.835938-2.722657 1.234375-4.148438 1.234375zm0 0" fill="#f63511"/><path d="m99.730469 211.910156c0 6.277344-5.089844 11.363282-11.363281 11.363282-6.277344 0-11.363282-5.085938-11.363282-11.363282 0-6.273437 5.085938-11.363281 11.363282-11.363281 6.273437 0 11.363281 5.089844 11.363281 11.363281zm0 0" fill="#4694f2"/><path d="m222.335938 174.984375-39.101563-19.148437c-14.105469-6.910157-30.398437 4.039062-29.328125 19.710937l2.015625 29.59375c1.070313 15.671875 18.703125 24.308594 31.738281 15.546875l36.136719-24.285156c7.917969-5.324219 7.105469-17.21875-1.460937-21.417969zm0 0" fill="#ff8500"/><path d="m222.039062 174.84375-7.683593-3.765625c.851562 4.648437-.867188 9.730469-5.347657 12.738281l-35.417968 23.804688c-5.183594 3.484375-11.085938 4.246094-16.414063 2.941406 4.5 11.972656 19.464844 17.53125 30.933594 9.824219l35.414063-23.804688c8.039062-5.402343 7.214843-17.480469-1.484376-21.738281zm0 0" fill="#ff6d00"/><path d="m374.800781 254.359375c18.738281 13.730469 30.914063 35.882813 30.914063 60.890625v4.601562c0 41.667969-33.777344 75.445313-75.445313 75.445313h-137.332031c-4.867188 0-9.621094-.476563-14.234375-1.359375 12.484375 9.148438 27.875 14.558594 44.535156 14.558594h137.332031c41.667969 0 75.449219-33.777344 75.449219-75.445313v-4.601562c0-36.800781-26.355469-67.429688-61.21875-74.089844zm0 0" fill="#ff8500"/><path d="m135.121094 287.914062 16.226562 16.226563c2.054688 2.054687 5.277344 2.371094 7.695313.757813l90.929687-60.789063-19.761718-19.761719zm0 0" fill="#ff592a"/><path d="m233.445312 255.15625 16.527344-11.046875-19.761718-19.761719-16.527344 11.046875zm0 0" fill="#f63511"/><path d="m96.324219 451.789062c-7.613281-12.050781-4.015625-27.992187 8.035156-35.605468l82.769531-52.125c12.050782-7.613282 27.992188-4.015625 35.609375 8.035156 7.613281 12.050781 4.015625 27.992188-8.035156 35.605469l-82.773437 52.125c-12.046876 7.613281-27.988282 4.015625-35.605469-8.035157zm0 0" fill="#fa0"/><path d="m7.191406 201.699219c-4.816406.730469-8.023437 5.367187-7 10.128906l3.5 16.351563h17.480469c5.820313 0 10.539063-4.71875 10.539063-10.542969v-19.644531zm0 0" fill="#8c6565"/><path d="m20.109375 199.746094v13.96875c0 5.820312-4.71875 10.539062-10.542969 10.539062h-6.714844l.839844 3.925782h17.480469c5.824219 0 10.542969-4.71875 10.542969-10.542969v-19.644531zm0 0" fill="#6d4949"/><path d="m482.726562 32.148438-84.636718-29.367188-24.800782 64.0625c-.65625 1.890625-2.039062 3.425781-3.832031 4.316406-16.253906 8.105469-27.421875 24.894532-27.421875 44.292969v55.289063c0 9.660156 7.832032 17.492187 17.492188 17.492187h84.703125c9.660156 0 17.492187-7.832031 17.492187-17.492187v-79.203126c0-4.144531.691406-8.253906 2.050782-12.167968zm0 0" fill="#ffc5b2"/><path d="m462.71875 25.207031-16.082031 40.066407c-1.359375 3.910156-2.050781 8.023437-2.050781 12.164062v79.203125c0 4.597656-1.789063 8.765625-4.6875 11.890625v-6.210938c0-4.167968-3.210938-7.804687-7.378907-7.929687-4.3125-.128906-7.847656 3.328125-7.847656 7.613281v10.101563c0 1.121093-.910156 2.03125-2.035156 2.03125h-11.972657c-1.121093 0-2.03125-.910157-2.03125-2.03125v-9.886719c0-4.171875-3.214843-7.804688-7.382812-7.929688-4.3125-.128906-7.847656 3.328126-7.847656 7.609376v10.207031c0 1.121093-.910156 2.03125-2.03125 2.03125h-11.976563c-1.121093 0-2.03125-.910157-2.03125-2.03125v-9.992188c0-4.167969-3.210937-7.804687-7.378906-7.929687-4.3125-.128906-7.851563 3.328125-7.851563 7.613281v10.308594c0 1.121093-.910156 2.03125-2.03125 2.03125h-17.710937c-.007813 0-.015625 0-.023437 0 1.578124 8.035156 8.65625 14.097656 17.15625 14.097656h84.699218c9.664063 0 17.496094-7.828125 17.496094-17.492187v-79.203126c0-4.140624.691406-8.253906 2.050781-12.164062l18.953125-47.226562zm0 0" fill="#ffa6a0"/><path d="m479.453125 416.183594-84.421875-52.625c-12.042969-7.5-27.882812-3.871094-35.460938 8.121094-7.648437 12.109374-3.980468 28.128906 8.179688 35.699218l84.128906 52.445313c12.050782 7.613281 27.992188 4.015625 35.605469-8.035157 7.613281-12.050781 4.019531-27.992187-8.03125-35.605468zm0 0" fill="#fa0"/><path d="m222.738281 372.089844c-1.964843-3.105469-4.484375-5.644532-7.34375-7.582032 2.875 10.640626-1.332031 22.351563-11.136719 28.546876l-82.773437 52.125c-8.945313 5.652343-20.027344 5.121093-28.261719-.453126.65625 2.4375 1.683594 4.816407 3.105469 7.0625 7.613281 12.050782 23.554687 15.644532 35.605469 8.03125l82.769531-52.121093c12.050781-7.617188 15.648437-23.558594 8.035156-35.609375zm0 0" fill="#ff8500"/><path d="m479.453125 416.183594-84.421875-52.625c-11.925781-7.425782-27.570312-3.933594-35.234375 7.78125 6.226563-1.253906 12.921875-.234375 18.734375 3.382812l84.421875 52.628906c12.050781 7.613282 15.648437 23.554688 8.035156 35.605469-.074219.117188-.152343.226563-.230469.339844 6.671876-1.34375 12.804688-5.300781 16.726563-11.507813 7.613281-12.050781 4.019531-27.992187-8.03125-35.605468zm0 0" fill="#ff8500"/><path d="m472.644531 71.601562 24.824219-61.847656c1.875-4.667968-1.5625-9.753906-6.59375-9.753906h-92.21875c-2.933594 0-5.566406 1.804688-6.625 4.542969l-13.148438 33.960937c-1.453124 3.753906.5 7.964844 4.304688 9.28125l80.535156 27.886719c3.582032 1.242187 7.511719-.550781 8.921875-4.070313zm0 0" fill="#4694f2"/><path d="m490.875 0h-24.101562l-21.203126 52.828125c-1.410156 3.515625-5.335937 5.308594-8.917968 4.066406l-57.21875-19.8125-.550782 1.421875c-1.453124 3.753906.5 7.964844 4.300782 9.28125l80.539062 27.886719c3.582032 1.242187 7.507813-.550781 8.921875-4.066406l24.824219-61.851563c1.875-4.667968-1.5625-9.753906-6.59375-9.753906zm0 0" fill="#257edf"/></svg>