<svg id="Capa_1" enable-background="new 0 0 495.4 495.4" height="512" viewBox="0 0 495.4 495.4" width="512" xmlns="http://www.w3.org/2000/svg"><g><path d="m388.515 412.866h34.615c39.781 0 72.146-32.364 72.146-72.146 0-22.138-9.943-42.731-27.28-56.498l-46.527-36.948c-6.695-5.317-16.431-4.2-21.748 2.496-5.316 6.694-4.199 16.431 2.496 21.748l46.527 36.948c9.897 7.86 15.574 19.616 15.574 32.255 0 22.711-18.477 41.188-41.188 41.188h-31.14-68.095v30.958h64.62z" fill="#aa9ea9"/><path d="m78.547 495.395h51c5.42 0 10.619-2.153 14.452-5.986 5.711-5.711 7.523-14.248 4.625-21.786l-6.068-15.783v-76.121-75.312h-59.771z" fill="#e5e1e5"/><g id="XMLID_180_"><g><path d="m236.155 449.93-5.44-5.17c-13.36-12.7-19.35-30.28-17.77-47.35l-.25-.02h-2.08c-20.861 0-40.949-7.89-56.235-22.086l-8.435-7.834-30.05 30.05c-2.68 2.68-4.18 6.3-4.18 10.08v62.2c0 4.53-1.99 8.83-5.44 11.77l-16.2 13.78c-.04.015-.096.035-.136.05h-48.384c-4.678 0-8.47-3.792-8.47-8.47v-1.77c0-7.47 2.77-14.68 7.76-20.23l22.74-25.27v-176.92l19.2-57.06v-79.934c0-3.577-2.9-6.476-6.476-6.476h-19.824c-14.37 0-27.977-6.468-37.049-17.612l-15.501-19.038c-2.46-3.03-3.81-6.81-3.81-10.72v-10.05c0-9.378 7.602-16.98 16.98-16.98h28.48l34.96-34.95c6.35-6.35 14.96-9.92 23.94-9.92l47.21.02c4.24 0 8.4.8 12.28 2.31 3.89 1.52 7.49 3.76 10.61 6.63 12.99 11.97 20.38 28.83 20.39 46.5v8.9l27.55 94.6c2.46 8.44 6.96 16.15 13.12 22.43l123.89 126.56c10.08 10.3 17.95 22.38 23.3 35.49 5.34 13.11 8.17 27.24 8.17 41.66 0 60.92-49.38 110.3-110.29 110.3h-94.35c-3.397 0-6.15-2.753-6.15-6.15v-20.24c0-10.538 8.542-19.08 19.08-19.08z" fill="#efedef"/></g><g fill="#e5e1e5"><path d="m160.926 380.765-3.465-3.218-.258.258c1.213 1.027 2.459 2.008 3.723 2.96z"/><path d="m44.602 495.237c0-7.47 2.77-14.68 7.76-20.23l22.74-25.27v-176.92l19.2-57.06v-79.934c0-3.577-2.9-6.476-6.476-6.476h-5.04v76.333l-19.2 57.06v176.92l-22.74 25.27c-4.99 5.55-7.76 12.76-7.76 20.23v1.77c0 4.678 3.792 8.47 8.47 8.47h3.047v-.163z"/></g><g><g><path d="m236.154 457.43c-1.856 0-3.714-.684-5.166-2.063l-5.44-5.17c-14.616-13.894-21.932-33.386-20.072-53.478 1.319-14.34 7.17-27.541 16.922-38.169 12.357-13.473 29.939-21.2 48.236-21.2 15.716 0 30.919 5.668 42.809 15.959l15.359 13.289c3.132 2.71 3.475 7.447.765 10.579s-7.446 3.476-10.579.765l-15.36-13.29c-9.165-7.934-20.881-12.302-32.993-12.302-14.106 0-27.658 5.956-37.183 16.34-7.514 8.19-12.023 18.358-13.039 29.407-1.434 15.494 4.205 30.519 15.469 41.227l5.439 5.169c3.002 2.854 3.124 7.601.27 10.603-1.474 1.552-3.454 2.334-5.437 2.334z" fill="#e5e1e5"/></g></g><path d="m174.585 8.96c-3.12-2.87-6.72-5.11-10.61-6.63-3.88-1.51-8.04-2.31-12.28-2.31l-47.21-.02c-8.98 0-17.59 3.57-23.94 9.92l-34.96 34.95h-5.694-4.581-18.205c-9.378 0-16.98 7.602-16.98 16.98v10.05c0 3.91 1.35 7.69 3.81 10.72l15.501 19.038c9.073 11.144 22.68 17.612 37.049 17.612h19.824c3.577 0 6.476 2.9 6.476 6.476v79.934l-19.2 57.06v176.92l-22.74 25.27c-4.99 5.55-7.76 12.76-7.76 20.23v1.77c0 4.678 3.792 8.47 8.47 8.47h48.384c.04-.015.096-.035.136-.05l.917-.78h-21.42c-4.678 0-8.47-3.792-8.47-8.47v-1.77c0-7.47 2.77-14.68 7.76-20.23l18.951-21.059c2.44-2.711 3.789-6.229 3.789-9.876v-171.255l19.2-57.06v-79.934c0-3.577-2.9-6.476-6.476-6.476h-19.824c-14.37 0-27.977-6.468-37.049-17.612l-15.5-19.038c-2.46-3.03-3.81-6.81-3.81-10.72v-10.05c0-5.72 7.168-6.073 7.168-6.073h13.641c5.218 0 10.223-2.073 13.913-5.762l29.196-29.188c6.35-6.35 14.96-9.92 23.94-9.92l47.21.02c4.24 0 8.4.8 12.28 2.31 1.515.592 2.983 1.296 4.399 2.101-1.65-1.941-3.41-3.802-5.305-5.548z" fill="#e5e1e5"/></g><circle cx="84.959" cy="50.958" fill="#9b8e99" r="9.78"/><circle cx="66.314" cy="165.89" fill="#fdcf8a" r="24.415"/><path d="m60.544 168.235c0-11.227 7.581-20.678 17.902-23.53-3.575-2.052-7.714-3.231-12.132-3.231-13.484 0-24.415 10.931-24.415 24.415s10.931 24.415 24.415 24.415c2.257 0 4.439-.313 6.514-.886-7.338-4.209-12.284-12.116-12.284-21.183z" fill="#fbc773"/><g id="XMLID_181_"><g><path d="m128.385 184.04c.26 1.83.39 3.69.39 5.59 0 22.01-17.84 39.85-39.85 39.85-1.17 0-6.67-.76-13.55-1.77l7.41-22.03v-21.64h2.17 16.87c8.9 0 17.75-.65 26.48-1.93z" fill="#aa9ea9"/><path d="m101.825 184.04h-16.87-2.17v21.64l-7.41 22.03c6.88 1.01 12.38 1.77 13.55 1.77 5.122 0 10.013-.977 14.51-2.737l7.367-21.893v-21.037c-2.985.147-5.978.227-8.977.227z" fill="#9b8e99"/><path d="m74.365 275.27c22.04 0 39.9 17.86 39.9 39.89 0 11.02-4.47 20.99-11.69 28.21s-17.19 11.69-28.21 11.69h-10.78v-79.79z" fill="#aa9ea9"/><path d="m91.602 279.175c-5.217-2.502-11.063-3.905-17.237-3.905h-10.78v79.79h10.78c6.175 0 12.021-1.405 17.237-3.91z" fill="#9b8e99"/><path d="m235.645 181.39 88.25 90.16-9.54 7.54c-12.59 9.95-29.75 11.82-44.19 4.83l-17.85-8.65-7.79 1.55c-2.73.54-5.48.81-8.2.81-10.99 0-21.66-4.33-29.58-12.25-14.92-14.92-16.4-38.61-3.45-55.27l27.14-34.9c1.57 2.18 3.31 4.25 5.21 6.18z" fill="#aa9ea9"/></g><g><g id="XMLID_182_"><g><path d="m206.405 103.6 11.48 39.42-.89.26-2.78 2.16c-25.09 19.55-54.73 32.11-85.91 36.67-8.73 1.28-17.58 1.93-26.48 1.93h-16.87-2.17v-36.57h1.04 3.33c40.72 0 80.27-13.59 112.4-38.6l5.73-4.47z" fill="#db895d"/></g><path d="m110.802 183.813v-37.885c-7.807 1.018-15.705 1.542-23.647 1.542h-3.33-1.04v36.57h2.17 16.87c2.999 0 5.992-.08 8.977-.227z" fill="#c86f3d"/><g><g id="XMLID_183_"><g><path d="m194.975 55.46-46.95 32.58c-11.59 8.05-27.45-.25-27.45-14.36v-73.67l31.12.01c4.24 0 8.4.8 12.28 2.31 3.89 1.52 7.49 3.76 10.61 6.63 12.99 11.97 20.38 28.83 20.39 46.5z" fill="#aa9ea9"/></g></g></g></g></g></g></g></svg>