<svg id="Capa_1" enable-background="new 0 0 512 512" height="512" viewBox="0 0 512 512" width="512" xmlns="http://www.w3.org/2000/svg"><g><path d="m205.549 119.263c-20.594-16.259-62.867-25.015-97.47-25.015-21.811 0-39.493-17.682-39.493-39.493s17.682-39.493 39.493-39.493c41.468 0 83.379 22.708 109.393 50.89z" fill="#b39bdb"/><path d="m306.451 119.263c20.594-16.259 62.867-25.015 97.47-25.015 21.811 0 39.493-17.682 39.493-39.493s-17.682-39.493-39.493-39.493c-41.468 0-83.379 22.708-109.393 50.89z" fill="#a2ddfd"/><path d="m406.857 94.129c-6.246-28.029-20.858-53.134-41.215-72.808-27.69 8.579-53.18 25.403-71.114 44.831l11.923 53.112c20.594-16.259 62.867-25.015 97.47-25.015.989 0 1.965-.049 2.936-.12z" fill="#7acdf9"/><path d="m105.143 94.129c.97.071 1.947.12 2.936.12 34.603 0 76.875 8.756 97.47 25.015l11.923-53.112c-17.934-19.428-43.423-36.252-71.114-44.831-20.357 19.674-34.969 44.778-41.215 72.808z" fill="#8f8bd5"/><path d="m131.763 124.838c0 52.461 62.118 160.415 124.237 193.982 62.118-33.567 124.237-141.521 124.237-193.982 0-64.804-55.623-117.338-124.237-117.338s-124.237 52.534-124.237 117.338z" fill="#fbf1cf"/><path d="m376.576 150.473c-40.846-3.331-87.407-4.887-120.576-4.887s-79.73 1.556-120.576 4.887c14.174 56.283 67.372 139.597 120.576 168.347 53.204-28.75 106.401-112.064 120.576-168.347z" fill="#fae0bd"/><path d="m74.414 458.483c0 19.027 14.078 35.096 32.935 37.636 39.881 5.372 102.584 8.381 148.651 8.381s108.77-3.009 148.651-8.381c18.856-2.54 32.935-18.609 32.935-37.636v-77.124c0-19.027-14.078-35.096-32.935-37.636-39.881-5.372-102.584-8.381-148.651-8.381s-108.77 3.009-148.651 8.381c-18.856 2.54-32.935 18.609-32.935 37.636z" fill="#8de1ce"/><path d="m63.985 293.957c0 20.119 14.887 37.111 34.826 39.797 42.172 5.68 108.476 8.862 157.189 8.862s115.017-3.182 157.189-8.862c19.939-2.686 34.826-19.678 34.826-39.797v-69.711c0-20.119-14.887-37.111-34.826-39.797-42.172-5.68-108.476-8.862-157.189-8.862s-115.017 3.182-157.189 8.862c-19.939 2.686-34.826 19.678-34.826 39.797z" fill="#f6ee86"/><g><g fill="#eda1ab"><ellipse cx="177.623" cy="123.236" rx="28.919" ry="23.03"/><ellipse cx="334.377" cy="123.236" rx="28.92" ry="23.03"/></g></g><path d="m256 128.415c7.763 0 15.146-3.362 20.255-9.225 2.722-3.122 2.397-7.86-.726-10.582s-7.86-2.397-10.581.726c-2.261 2.593-5.522 4.08-8.948 4.08s-6.688-1.487-8.948-4.08c-2.72-3.122-7.459-3.447-10.581-.726-3.123 2.722-3.447 7.459-.726 10.582 5.11 5.863 12.492 9.225 20.255 9.225zm-12.394 249.295c-1.408-3.427-4.711-5.64-8.416-5.64h-.009c-3.708.003-7.012 2.223-8.416 5.656-.022.055-.044.109-.064.164l-30.161 79.191c-1.431 3.758.455 7.964 4.213 9.395 3.752 1.43 7.963-.454 9.394-4.212l5.726-15.034h38.41l5.666 15.013c1.424 3.774 5.631 5.656 9.382 4.241 3.761-1.42 5.66-5.62 4.24-9.382l-29.887-79.194c-.024-.067-.05-.133-.078-.198zm-22.187 54.958 13.747-36.095 13.622 36.095zm234.097-138.711v-69.711c0-23.752-17.766-44.057-41.325-47.23-11.144-1.501-23.659-2.8-36.848-3.909 11.589-31.587 12.064-50.78 8.29-70.548 6.221-.528 12.348-.81 18.289-.81 25.913 0 46.994-21.081 46.994-46.993s-21.082-46.994-46.995-46.994c-22.285 0-45.737 6.154-68.107 17.83-22.164-16.045-49.833-25.592-79.814-25.592-29.984 0-57.654 9.549-79.82 25.596-17.52-9.13-36.052-14.998-53.883-17.019-4.116-.465-7.831 2.492-8.297 6.608-.467 4.116 2.491 7.831 6.607 8.297 14.094 1.598 28.737 5.916 42.88 12.573-15.218 14.242-26.81 31.956-33.314 51.776-7.513-.711-14.923-1.083-22.094-1.083-17.642 0-31.994-14.352-31.994-31.993 0-10.671 5.295-20.603 14.164-26.569 3.437-2.312 4.349-6.973 2.036-10.41-2.312-3.437-6.973-4.349-10.409-2.037-13.019 8.758-20.791 23.343-20.791 39.016 0 25.912 21.081 46.993 46.994 46.993 5.94 0 12.069.283 18.289.807-3.782 19.809-3.281 39.024 8.285 70.551-13.187 1.109-25.701 2.409-36.843 3.909-23.56 3.173-41.325 23.478-41.325 47.23v69.711c0 22.097 15.38 41.202 36.493 46.314-15.501 7.372-26.063 23.202-26.063 41.088v77.124c0 22.665 16.953 42.04 39.434 45.069 43.092 5.805 107.783 8.449 149.651 8.449 41.869 0 106.559-2.644 149.652-8.448 14.847-2 27.756-11.167 34.53-24.522 1.874-3.694.398-8.207-3.295-10.082-3.692-1.872-8.208-.399-10.082 3.296-4.543 8.954-13.199 15.102-23.155 16.442-42.409 5.712-106.265 8.314-147.65 8.314s-105.241-2.602-147.65-8.314c-15.07-2.03-26.436-15.014-26.436-30.203v-77.124c0-15.189 11.365-28.173 26.436-30.203 12.787-1.722 28.338-3.256 46.222-4.559 35.523 2.391 73.333 3.519 101.428 3.519s65.905-1.128 101.428-3.519c17.884 1.303 33.435 2.837 46.222 4.559 15.07 2.03 26.436 15.014 26.436 30.203v58.352c0 4.142 3.357 7.5 7.5 7.5s7.5-3.358 7.5-7.5v-58.352c0-17.887-10.563-33.717-26.063-41.088 21.113-5.111 36.493-24.216 36.493-46.314zm-51.595-271.195c17.642 0 31.994 14.352 31.994 31.993s-14.353 31.993-31.994 31.993c-7.171 0-14.58.372-22.094 1.083-6.506-19.824-18.101-37.541-33.323-51.785 18.447-8.705 37.418-13.284 55.417-13.284zm-147.921-7.762c64.368 0 116.736 49.273 116.736 109.838 0 12.337-3.785 28.532-10.964 47.067-36.76-2.597-76.529-3.818-105.772-3.818s-69.012 1.221-105.773 3.818c-7.178-18.534-10.964-34.73-10.964-47.067.001-60.565 52.369-109.838 116.737-109.838zm184.516 278.957c0 16.275-12.178 30.189-28.327 32.364-44.861 6.043-112.411 8.795-156.189 8.795s-111.327-2.752-156.189-8.795c-16.149-2.175-28.327-16.088-28.327-32.364v-69.711c0-16.275 12.178-30.189 28.327-32.364 44.865-6.043 112.413-8.795 156.189-8.795s111.323 2.753 156.189 8.795c16.149 2.176 28.327 16.089 28.327 32.365zm-136.758-188.282c4.143 0 7.5-3.358 7.5-7.5 0-3.455 2.811-6.265 6.265-6.265s6.265 2.811 6.265 6.265c0 4.142 3.357 7.5 7.5 7.5s7.5-3.358 7.5-7.5c0-11.726-9.539-21.265-21.265-21.265s-21.265 9.54-21.265 21.265c0 4.142 3.357 7.5 7.5 7.5zm-182.475 272.487v80.322c0 4.021 3.259 7.28 7.28 7.28s7.28-3.259 7.28-7.28v-80.322c0-4.021-3.259-7.28-7.28-7.28-4.021-.001-7.28 3.259-7.28 7.28zm59.43-272.487c4.143 0 7.5-3.358 7.5-7.5 0-3.455 2.811-6.265 6.265-6.265s6.265 2.811 6.265 6.265c0 4.142 3.357 7.5 7.5 7.5s7.5-3.358 7.5-7.5c0-11.726-9.539-21.265-21.265-21.265-11.725 0-21.265 9.54-21.265 21.265 0 4.142 3.357 7.5 7.5 7.5zm186.504 265.221c-4.12-.229-7.889 2.348-9.162 6.274-.027.083-.053.166-.077.25l-16.997 59.623-17.613-59.7c-.025-.087-.053-.173-.081-.26-1.316-3.914-5.104-6.452-9.23-6.177-4.119.276-7.541 3.301-8.337 7.438l-14.118 78.219c-.714 3.957 1.915 7.743 5.872 8.458 3.952.711 7.744-1.914 8.458-5.872l10.017-55.502 16.421 55.66c.026.088.053.174.082.261 1.247 3.712 4.708 6.196 8.62 6.196h.05c3.932-.021 7.388-2.549 8.602-6.289.027-.082.052-.166.076-.249l15.856-55.624 10.63 55.621c.755 3.95 4.574 6.536 8.517 5.784 3.949-.754 6.539-4.568 5.783-8.517l-14.97-78.331c-.823-4.044-4.278-7.031-8.399-7.263zm-199.177-161.427c-4.021 0-7.28 3.26-7.28 7.28v31.503h-41.024v-31.503c0-4.021-3.259-7.28-7.28-7.28s-7.28 3.26-7.28 7.28v80.322c0 4.021 3.259 7.28 7.28 7.28s7.28-3.259 7.28-7.28v-34.258h41.024v34.258c0 4.021 3.259 7.28 7.28 7.28s7.28-3.259 7.28-7.28v-80.322c.001-4.021-3.258-7.28-7.28-7.28zm231.504 15.294c4.021 0 7.28-3.26 7.28-7.28s-3.259-7.28-7.28-7.28h-33.536c-4.021 0-7.28 3.26-7.28 7.28v79.589c0 4.021 3.259 7.28 7.28 7.28h33.536c4.021 0 7.28-3.259 7.28-7.28s-3.259-7.28-7.28-7.28h-26.255v-25.233h23.782c4.021 0 7.28-3.259 7.28-7.28s-3.259-7.28-7.28-7.28h-23.782v-25.234h26.255zm-155.496 0c4.021 0 7.28-3.26 7.28-7.28s-3.259-7.28-7.28-7.28h-33.535c-4.021 0-7.28 3.26-7.28 7.28v79.589c0 4.021 3.259 7.28 7.28 7.28h33.535c4.021 0 7.28-3.259 7.28-7.28s-3.259-7.28-7.28-7.28h-26.255v-25.233h23.782c4.021 0 7.28-3.259 7.28-7.28s-3.259-7.28-7.28-7.28h-23.782v-25.234h26.255zm92.008 13.227c0-15.525-13.16-28.155-29.336-28.155h-21.344v.001c-.009 0-.018-.001-.026-.001-4.021 0-7.28 3.26-7.28 7.28v80.322c0 4.021 3.259 7.28 7.28 7.28s7.28-3.26 7.28-7.28v-30.051l30.681 34.861c2.659 3.022 7.261 3.308 10.275.655 3.018-2.656 3.311-7.257.655-10.275l-23.542-26.749c14.3-1.869 25.357-13.659 25.357-27.888zm-29.336 13.595c-3.243 0-9.279.027-14.09.053v-27.241h14.09c8.009 0 14.776 6.225 14.776 13.594s-6.767 13.594-14.776 13.594z"/></g></svg>