<svg id="Layer_1" enable-background="new 0 0 512 512" height="512" viewBox="0 0 512 512" width="512" xmlns="http://www.w3.org/2000/svg"><g><g><g><path d="m456 392h-400v-224c0-17.673 14.327-32 32-32h336c17.673 0 32 14.327 32 32z" fill="#463c4b"/></g><g><path d="m424 392h-368v-224c0-17.673 14.327-32 32-32h304c17.673 0 32 14.327 32 32z" fill="#555a6e"/></g><g><path d="m88 432h336c17.673 0 32-14.327 32-32v-8h-400v8c0 17.673 14.327 32 32 32z" fill="#a5c3dc"/></g><g><path d="m392 432h-304c-17.673 0-32-14.327-32-32v-8h368v8c0 17.673-14.327 32-32 32z" fill="#d7e6f0"/></g><g><path d="m216 432h72v32h-72z" fill="#a5c3dc"/></g><g><path d="m216 448h48v16h-48z" fill="#d7e6f0"/></g><g><path d="m328 488h-160v-8c0-8.837 7.163-16 16-16h128c8.837 0 16 7.163 16 16z" fill="#d7e6f0"/></g><g><path d="m328 488h-48v-8c0-8.837 7.163-16 16-16h16c8.837 0 16 7.163 16 16z" fill="#a5c3dc"/></g></g><g><g><path d="m128 216h232c17.673 0 32-14.327 32-32v-128c0-17.673-14.327-32-32-32h-232c-17.673 0-32 14.327-32 32v128c0 17.673 14.327 32 32 32z" fill="#289bc3"/></g><g><path d="m128 216h208c17.673 0 32-14.327 32-32v-128c0-17.673-14.327-32-32-32h-208c-17.673 0-32 14.327-32 32v128c0 17.673 14.327 32 32 32z" fill="#00d2d2"/></g><g><path d="m96 56h272v32h-272z" fill="#555a6e"/></g><g><path d="m192 136h-48c-8.837 0-16 7.163-16 16v16c0 8.837 7.163 16 16 16h48c8.837 0 16-7.163 16-16v-16c0-8.837-7.163-16-16-16z" fill="#d7e6f0"/></g><g><path d="m368 56h24v32h-24z" fill="#463c4b"/></g></g><g><g><g><path d="m312 360h-144c-17.673 0-32-14.327-32-32v-48c0-17.673 14.327-32 32-32h144c17.673 0 32 14.327 32 32v48c0 17.673-14.327 32-32 32z" fill="#faa037"/></g><g><path d="m280 360h-112c-17.673 0-32-14.327-32-32v-48c0-17.673 14.327-32 32-32h112c17.673 0 32 14.327 32 32v48c0 17.673-14.327 32-32 32z" fill="#ffd241"/></g></g><path d="m240 294c3.313 0 6-2.687 6-6v-1.167c0-9.821-6.84-18.056-16-20.244v-2.589c0-3.313-2.687-6-6-6s-6 2.687-6 6v2.589c-9.16 2.188-16 10.423-16 20.244 0 7.941 4.413 15.081 11.516 18.633l15.601 7.8c3.012 1.506 4.883 4.533 4.883 7.9 0 4.871-3.962 8.833-8.833 8.833h-2.334c-4.871 0-8.833-3.962-8.833-8.833v-1.166c0-3.313-2.687-6-6-6s-6 2.687-6 6v1.167c0 9.821 6.84 18.056 16 20.244v2.589c0 3.313 2.687 6 6 6s6-2.687 6-6v-2.589c9.16-2.188 16-10.423 16-20.244 0-7.941-4.413-15.081-11.516-18.633l-15.601-7.8c-3.012-1.506-4.883-4.533-4.883-7.9 0-4.871 3.962-8.833 8.833-8.833h2.334c4.871 0 8.833 3.962 8.833 8.833v1.166c0 3.313 2.687 6 6 6z" fill="#faa037"/></g><g><g><path d="m418.343 380.105-34.343-34.343 10.979-10.979c10.709-10.709 3.125-29.021-12.021-29.021h-83.67c-7.237 0-14.176 2.878-19.288 8-5.123 5.132-8 12.088-8 19.339v51.619c0 10.248 8.384 17.024 17.124 17.024l-.001.01h32l.001-.01c1.949 0 3.912-.34 5.807-1.052l19.412 19.412c3.622 3.622 8.535 5.657 13.657 5.657h32c5.122 0 10.035-2.035 13.657-5.657l12.687-12.687c3.622-3.622 5.657-8.534 5.657-13.657s-2.036-10.033-5.658-13.655z" fill="#e64178"/></g><g><path d="m386.343 380.105-34.343-34.343 10.979-10.979c10.709-10.709 3.125-29.021-12.021-29.021h-51.67c-7.237 0-14.176 2.878-19.288 8-5.123 5.132-8 12.088-8 19.339v51.619c0 15.145 18.311 22.73 29.021 12.021l10.979-10.979 34.343 34.343c3.622 3.622 8.535 5.657 13.657 5.657 5.122 0 10.035-2.035 13.657-5.657l12.687-12.687c3.622-3.622 5.656-8.534 5.656-13.656 0-5.122-2.035-10.035-5.657-13.657z" fill="#ff6e91"/></g></g></g></svg>