<?xml version="1.0" encoding="iso-8859-1"?>
<!-- Generator: Adobe Illustrator 19.0.0, SVG Export Plug-In . SVG Version: 6.00 Build 0)  -->
<svg version="1.1" id="Capa_1" xmlns="http://www.w3.org/2000/svg" xmlns:xlink="http://www.w3.org/1999/xlink" x="0px" y="0px"
	 viewBox="0 0 512 512" style="enable-background:new 0 0 512 512;" xml:space="preserve">
<path style="fill:#75E0F1;" d="M360,200H152c-4.418,0-8,3.582-8,8v264c0,22.056,17.944,40,40,40h144c22.056,0,40-17.944,40-40V208
	C368,203.582,364.418,200,360,200z"/>
<path style="fill:#53D9ED;" d="M360,200H152c-4.418,0-8,3.582-8,8v48h176c8.837,0,16,7.163,16,16v200c0,22.056-17.944,40-40,40h32
	c22.091,0,40-17.909,40-40V208C368,203.582,364.418,200,360,200z"/>
<path style="fill:#FDC572;" d="M348.881,117.486c-12.854-9.896-26.37-14.275-37.23-17.794c-18.608-6.028-26.178-9.17-26.618-26.624
	c-0.057-2.272,1.514-5.103,3.502-8.687C291.686,58.703,296,50.926,296,40c0-22.056-17.944-40-40-40s-40,17.944-40,40
	c0,10.926,4.315,18.703,7.465,24.381c1.989,3.584,3.559,6.415,3.502,8.687c-0.44,17.454-8.009,20.596-26.618,26.624
	c-10.86,3.519-24.377,7.898-37.23,17.794c-20.258,15.597-20.074,35.883-19.964,48.004c0.008,0.866,0.016,1.704,0.016,2.51
	c0,4.418,3.582,8,8,8h209.658c4.418,0,8-3.582,8-8c0-0.807,0.008-1.645,0.016-2.51C368.954,153.369,369.138,133.083,348.881,117.486
	z"/>
<path style="fill:#FCB74F;" d="M348.881,117.486c-12.854-9.896-26.37-14.275-37.23-17.794c-18.608-6.028-26.178-9.17-26.618-26.624
	c-0.057-2.272,1.514-5.103,3.502-8.687C291.686,58.703,296,50.926,296,40c0-22.056-17.944-40-40-40
	c-2.892,0-5.711,0.316-8.431,0.902c18.02,3.882,31.569,19.934,31.569,39.098c0,10.926-4.314,18.703-7.466,24.381
	c-1.988,3.584-3.798,13.365-3.502,15.619c2.106,16,8.01,25.972,26.618,32c10.86,3.519,24.377,7.898,37.23,17.794
	c20.257,15.597,20.073,23.575,19.964,35.696c-0.008,0.866-0.016,1.704-0.016,2.51c0,4.418-3.582,8-8,8h16.862c4.418,0,8-3.582,8-8
	c0-0.807,0.008-1.645,0.016-2.51C368.954,153.369,369.138,133.083,348.881,117.486z"/>
<path style="fill:#8B8A7B;" d="M384,160H128c-4.418,0-8,3.582-8,8v64c0,4.418,3.582,8,8,8h256c4.418,0,8-3.582,8-8v-64
	C392,163.582,388.418,160,384,160z"/>
<path style="fill:#7A7A69;" d="M384,160h-24c4.418,0,8,3.582,8,8v64c0,4.418-3.582,8-8,8h24c4.418,0,8-3.582,8-8v-64
	C392,163.582,388.418,160,384,160z"/>
<g>
	<rect x="248" y="160" style="fill:#6A6956;" width="16" height="80"/>
	<rect x="312" y="160" style="fill:#6A6956;" width="16" height="80"/>
	<rect x="184" y="160" style="fill:#6A6956;" width="16" height="80"/>
</g>
<path style="fill:#FFFFFF;" d="M262.242,298.997C260.725,297.103,258.428,296,256,296s-4.724,1.103-6.243,2.997
	C245.483,304.33,208,351.797,208,376c0,26.467,21.533,48,48,48c26.468,0,48-21.533,48-48
	C304,351.797,266.517,304.33,262.242,298.997z"/>
<g>
</g>
<g>
</g>
<g>
</g>
<g>
</g>
<g>
</g>
<g>
</g>
<g>
</g>
<g>
</g>
<g>
</g>
<g>
</g>
<g>
</g>
<g>
</g>
<g>
</g>
<g>
</g>
<g>
</g>
</svg>
