<svg height="480pt" viewBox="0 0 480 480" width="480pt" xmlns="http://www.w3.org/2000/svg"><path d="m368 448v-256l-32-144v-48h-304v48l-32 128v272c0 17.671875 14.328125 32 32 32h304c17.671875 0 32-14.328125 32-32zm0 0" fill="#6e83b7"/><path d="m264 160c0 44.183594-35.816406 80-80 80s-80-35.816406-80-80 35.816406-80 80-80 80 35.816406 80 80zm0 0" fill="#80d6fb"/><path d="m184 199.03125c6.535156 0 11.054688 5.769531 20.191406 5.769531 6.503906 0 14.425782-5.121093 14.425782-12.578125 0-23.070312-20.007813-34.613281-34.617188-34.613281s-34.617188 11.535156-34.617188 34.613281c0 7.449219 7.914063 12.578125 14.425782 12.578125 9.136718 0 13.65625-5.769531 20.191406-5.769531zm0 0" fill="#6e83b7"/><path d="m147.28125 146.367188c4.132812 4.519531 8.3125 16.457031 3.78125 20.585937-4.519531 4.136719-16.03125-1.097656-20.167969-5.617187-4.132812-4.519532-3.816406-11.535157.707031-15.671876 4.527344-4.128906 11.550782-3.816406 15.679688.703126zm0 0" fill="#6e83b7"/><path d="m151.199219 134.519531c2.703125 7.488281 13.914062 19.511719 21.402343 16.808594 7.488282-2.703125 8.429688-19.113281 5.726563-26.601563-2.703125-7.488281-10.96875-11.375-18.464844-8.664062-7.488281 2.707031-11.367187 10.96875-8.664062 18.457031zm0 0" fill="#6e83b7"/><path d="m220.71875 146.367188c-4.132812 4.519531-8.3125 16.457031-3.78125 20.585937 4.519531 4.136719 16.03125-1.097656 20.167969-5.617187 4.132812-4.519532 3.816406-11.535157-.707031-15.671876-4.527344-4.128906-11.550782-3.816406-15.679688.703126zm0 0" fill="#6e83b7"/><path d="m216.800781 134.519531c-2.703125 7.488281-13.914062 19.511719-21.402343 16.808594-7.488282-2.703125-8.429688-19.113281-5.726563-26.601563 2.703125-7.488281 10.96875-11.375 18.464844-8.664062 7.488281 2.707031 11.367187 10.96875 8.664062 18.457031zm0 0" fill="#6e83b7"/><path d="m272 480h200c4.414062 0 8-3.585938 8-8v-24c0-4.414062-3.585938-8-8-8h-8l-44.105469-117.617188c-2.34375-6.246093-8.308593-10.382812-14.984375-10.382812h-265.820312c-6.675782 0-12.640625 4.136719-14.984375 10.382812l-44.105469 117.617188h-8c-4.414062 0-8 3.585938-8 8v24c0 4.414062 3.585938 8 8 8zm0 0" fill="#80d6fb"/><path d="m80 440h384l-3-8h-378zm0 0" fill="#46bee8"/><path d="m144 312c0-13.257812 10.742188-24 24-24 0-17.671875 14.328125-32 32-32 4.328125 0 8.449219.878906 12.214844 2.441406 4.328125-6.296875 11.570312-10.441406 19.785156-10.441406 3.054688 0 5.953125.625 8.640625 1.664062 2.933594-14.632812 15.855469-25.664062 31.359375-25.664062s28.425781 11.03125 31.359375 25.664062c2.6875-1.039062 5.585937-1.664062 8.640625-1.664062 8.214844 0 15.457031 4.144531 19.785156 10.441406 3.765625-1.5625 7.886719-2.441406 12.214844-2.441406 17.671875 0 32 14.328125 32 32 13.257812 0 24 10.742188 24 24zm0 0" fill="#ffd3b3"/><g fill="#466089"><path d="m48 8h16v32h-16zm0 0"/><path d="m96 8h16v32h-16zm0 0"/><path d="m144 8h16v32h-16zm0 0"/><path d="m192 8h16v32h-16zm0 0"/><path d="m240 8h16v32h-16zm0 0"/><path d="m288 8h16v32h-16zm0 0"/></g></svg>