<svg id="Capa_1" enable-background="new 0 0 512 512" height="512" viewBox="0 0 512 512" width="512" xmlns="http://www.w3.org/2000/svg"><g><path d="m451 151-24.376-30h-170.624-15l-30 30h-30c-33.137 0-60 26.862-60 60h-61c-16.569 0-30 13.431-30 30 0 16.567 13.431 30 30 30l39.124 15h156.876 154.374l40.626-15c33.137 0 61-26.863 61-60 0-33.138-27.863-60-61-60z" fill="#fff7cc"/><path d="m451 271c33.137 0 61-26.863 61-60 0-33.138-27.863-60-61-60l-24.376-30h-170.624v165h154.374z" fill="#ffe6b3"/><path d="m459.027 43.158c-21.299 0-38.862 12.759-46.978 34.116l8.951 73.726h91v-30c0-40.334-12.981-77.842-52.973-77.842z" fill="#a34f3e"/><path d="m262.958 43.158c-39.328 0-51.958 38.045-51.958 77.842v30h89.985l12.524-60.586c-6.196-34.878-31.098-47.256-50.551-47.256z" fill="#c86e59"/><path d="m361 31c-49.706 0-90 40.294-90 90v60c0 44.568 32.472 81.313 75 88.488l15-22.277 15 22.277c42.528-7.174 75-43.92 75-88.488v-60c0-49.706-40.294-90-90-90z" fill="#fed843"/><path d="m451 181v-60c0-49.706-40.294-90-90-90v216.211l15 22.277c42.528-7.175 75-43.92 75-88.488z" fill="#ff9100"/><g><path d="m121 436h30v45h-30z" fill="#596c76"/></g><g><path d="m361 436h30v45h-30z" fill="#3b4a51"/></g><g><path d="m75 181c-24.814 0-45-20.186-45-45s20.186-45 45-45 46 20.186 46 45-21.186 45-46 45z" fill="#fff7cc"/></g><g><path d="m0 181h30v30h-30z" fill="#fff7cc"/></g><path d="m467 286h-211-211l-30 15c8.276 0 15 6.724 15 15 0 74.443 61.557 135 136 135h90 90c74.443 0 136-60.557 136-135 0-8.276 6.724-15 15-15z" fill="#76e2f8"/><path d="m482 316c0-8.276 6.724-15 15-15l-30-15h-211v165h90c74.443 0 136-60.557 136-135z" fill="#00c8c8"/><g><path d="m316 136h30v30h-30z" fill="#596c76"/></g><g><path d="m376 136h30v30h-30z" fill="#3b4a51"/></g><path d="m380.395 185.395-19.395 19.394-19.395-19.395-21.211 21.211 25.606 25.606v37.277c4.904.828 9.862 1.512 15 1.512s10.096-.685 15-1.512v-37.277l25.605-25.605z" fill="#596c76"/><path d="m376 232.211 25.605-25.605-21.211-21.211-19.394 19.394v66.211c5.138 0 10.096-.685 15-1.512z" fill="#3b4a51"/><path d="m256 271h-256v30h256 256v-30z" fill="#76e2f8"/><path d="m256 271h256v30h-256z" fill="#00c8c8"/></g></svg>