<svg height="480pt" viewBox="0 0 480 480" width="480pt" xmlns="http://www.w3.org/2000/svg"><path d="m240 56-208 136v288h416v-288zm0 0" fill="#edeff1"/><path d="m240 56-208 136v40l208-136 208 136v-40zm0 0" fill="#d3d3d3"/><g fill="#6e83b7"><path d="m240 0-240 152v72l240-160 240 160v-72zm0 0"/><path d="m240 401.472656c16.457031 0 27.839844 14.527344 50.839844 14.527344 16.382812 0 36.3125-12.894531 36.3125-31.65625 0-58.105469-50.382813-87.152344-87.152344-87.152344s-87.152344 29.046875-87.152344 87.152344c0 18.761719 19.929688 31.65625 36.3125 31.65625 23 0 34.382813-14.527344 50.839844-14.527344zm0 0"/><path d="m147.550781 268.886719c10.410157 11.386719 20.921875 41.425781 9.539063 51.832031-11.386719 10.410156-40.363282-2.75-50.769532-14.144531-10.410156-11.382813-9.617187-29.054688 1.769532-39.460938 11.382812-10.410156 29.054687-9.617187 39.460937 1.773438zm0 0"/><path d="m157.40625 239.054688c6.808594 18.867187 35.027344 49.128906 53.890625 42.3125 18.863281-6.816407 21.230469-48.121094 14.421875-66.976563s-27.621094-28.628906-46.488281-21.824219c-18.863281 6.808594-28.628907 27.625-21.824219 46.488282zm0 0"/><path d="m332.449219 268.886719c-10.410157 11.386719-20.921875 41.425781-9.539063 51.832031 11.386719 10.410156 40.363282-2.75 50.769532-14.144531 10.410156-11.382813 9.617187-29.054688-1.769532-39.460938-11.382812-10.410156-29.054687-9.617187-39.460937 1.773438zm0 0"/><path d="m322.59375 239.054688c-6.808594 18.867187-35.027344 49.128906-53.890625 42.3125-18.863281-6.816407-21.230469-48.121094-14.421875-66.976563s27.621094-28.628906 46.488281-21.824219c18.863281 6.808594 28.628907 27.625 21.824219 46.488282zm0 0"/></g></svg>