<svg height="480pt" viewBox="0 0 480 480" width="480pt" xmlns="http://www.w3.org/2000/svg"><path d="m16 344h16v-32h-16c-8.839844 0-16 7.160156-16 16s7.160156 16 16 16zm0 0" fill="#ffb236"/><path d="m272 344h16c8.839844 0 16-7.160156 16-16s-7.160156-16-16-16h-16zm0 0" fill="#ffb236"/><path d="m184 240h-64l6.175781-18.527344c1.089844-3.273437 4.144531-5.472656 7.59375-5.472656h36.460938c3.441406 0 6.503906 2.199219 7.59375 5.472656zm0 0" fill="#ffb236"/><path d="m288 344-32.113281-83.488281c-4.75-12.359375-16.621094-20.511719-29.863281-20.511719h-148.046876c-13.242187 0-25.113281 8.152344-29.863281 20.511719l-32.113281 83.488281c-8.839844 0-16 7.160156-16 16v64c0 8.839844 7.160156 16 16 16h272c8.839844 0 16-7.160156 16-16v-64c0-8.839844-7.160156-16-16-16zm0 0" fill="#ffe352"/><path d="m32 344 28.167969-77.464844c2.304687-6.328125 8.3125-10.535156 15.039062-10.535156h153.585938c6.726562 0 12.734375 4.207031 15.039062 10.535156l28.167969 77.464844zm0 0" fill="#80d6fb"/><path d="m32 480h32c8.839844 0 16-7.160156 16-16v-24h-64v24c0 8.839844 7.160156 16 16 16zm0 0" fill="#6e83b7"/><path d="m240 480h32c8.839844 0 16-7.160156 16-16v-24h-64v24c0 8.839844 7.160156 16 16 16zm0 0" fill="#6e83b7"/><path d="m272 392c0 8.835938-7.164062 16-16 16s-16-7.164062-16-16 7.164062-16 16-16 16 7.164062 16 16zm0 0" fill="#edeff1"/><path d="m64 392c0 8.835938-7.164062 16-16 16s-16-7.164062-16-16 7.164062-16 16-16 16 7.164062 16 16zm0 0" fill="#edeff1"/><path d="m224 0h224c17.671875 0 32 14.328125 32 32v160c0 17.671875-14.328125 32-32 32h-121.335938l-46.664062 40v-40h-56c-17.671875 0-32-14.328125-32-32v-160c0-17.671875 14.328125-32 32-32zm0 0" fill="#80d6fb"/><path d="m208 416h-112c-4.414062 0-8-3.585938-8-8s3.585938-8 8-8h112c4.414062 0 8 3.585938 8 8s-3.585938 8-8 8zm0 0" fill="#ffb236"/><path d="m208 392h-112c-4.414062 0-8-3.585938-8-8s3.585938-8 8-8h112c4.414062 0 8 3.585938 8 8s-3.585938 8-8 8zm0 0" fill="#ffb236"/><path d="m336 144h-70.398438v27.070312c0 3.257813.621094 6.480469 1.832032 9.503907l2.917968 7.304687c4.863282 12.152344 16.632813 20.121094 29.710938 20.121094h71.875c13.085938 0 24.847656-7.96875 29.710938-20.113281l2.917968-7.300781c1.210938-3.027344 1.832032-6.25 1.832032-9.507813v-27.078125zm0 0" fill="#edeff1"/><path d="m265.601562 144v27.070312c0 .921876.0625 1.839844.160157 2.753907 3.964843 1.382812 8.207031 2.175781 12.636719 2.175781h32c10.472656 0 19.761718-5.078125 25.601562-12.878906 5.839844 7.800781 15.128906 12.878906 25.601562 12.878906h32c4.429688 0 8.671876-.792969 12.636719-2.183594.097657-.914062.160157-1.832031.160157-2.753906v-27.0625zm0 0" fill="#d3d3d3"/><path d="m336 192c-10.601562 0-19.199219-8.601562-19.199219-19.199219v-32h38.398438v32c0 10.597657-8.597657 19.199219-19.199219 19.199219zm0 0" fill="#ffb0aa"/><path d="m336 144h-19.199219v28.800781c0 .839844.070313 1.65625.175781 2.472657 7.726563-1.632813 14.4375-6.035157 19.023438-12.152344 4.585938 6.117187 11.296875 10.519531 19.023438 12.152344.105468-.808594.175781-1.632813.175781-2.472657v-28.800781zm0 0" fill="#ff7b7b"/><path d="m361.601562 32c0-8.839844 7.160157-16 16-16h.574219c7.214844 0 13.535157 4.832031 15.441407 11.792969l13.726562 50.34375c1.496094 5.488281 2.257812 11.152343 2.257812 16.839843v17.023438h-48zm0 0" fill="#466089"/><path d="m310.398438 32c0-8.839844-7.160157-16-16-16h-.574219c-7.214844 0-13.535157 4.832031-15.441407 11.792969l-13.726562 50.34375c-1.496094 5.488281-2.257812 11.152343-2.257812 16.839843v17.023438h48zm0 0" fill="#466089"/><path d="m390.855469 79.761719-6.847657-32.515625c-1.871093-8.886719-9.703124-15.246094-18.785156-15.246094h-3.023437c4.6875-5.457031 3.304687-16-7-16-5.175781 0-9.757813 2.542969-13.429688 5.59375-1.152343-3.136719-4.015625-5.59375-8.96875-5.59375-13 0-22.402343 16-22.402343 16h-3.621094c-9.082032 0-16.921875 6.359375-18.792969 15.246094l-6.847656 32.515625c-1.824219 8.671875-2.746094 17.511719-2.746094 26.367187v41.070313h115.210937v-41.070313c0-8.863281-.921874-17.695312-2.746093-26.367187zm0 0" fill="#6e83b7"/><path d="m393.601562 105.601562h-115.203124c-17.671876 0-32 14.328126-32 32 0 17.671876 14.328124 32 32 32h32c14.136718 0 25.601562-11.464843 25.601562-25.601562 0 14.136719 11.464844 25.601562 25.601562 25.601562h32c17.671876 0 32-14.328124 32-32 0-17.671874-14.328124-32-32-32zm0 0" fill="#edeff1"/><g fill="#d3d3d3"><path d="m336 99.199219h-12.800781c-7.070313 0-12.800781 5.730469-12.800781 12.800781v2.425781c0 2.542969 1.007812 4.980469 2.808593 6.789063l6.242188 6.242187c2.398437 2.398438 5.65625 3.75 9.046875 3.75h15c3.390625 0 6.648437-1.351562 9.046875-3.75l6.242187-6.242187c1.800782-1.800782 2.808594-4.238282 2.808594-6.789063v-2.425781c0-7.070312-5.730469-12.800781-12.800781-12.800781zm0 0"/><path d="m430.722656 105.003906 2.535156 7.597656-48.003906 16-2.535156-7.597656zm0 0"/><path d="m385.277344 146.597656 48.003906 16-2.53125 7.597656-48.003906-16zm0 0"/><path d="m384 133.601562h48v8h-48zm0 0"/><path d="m241.277344 104.992188 48.003906 16-2.53125 7.597656-48.007812-16zm0 0"/><path d="m286.722656 146.605469 2.53125 7.597656-48.003906 16-2.53125-7.597656zm0 0"/><path d="m240 133.601562h48v8h-48zm0 0"/></g></svg>