<svg id="Capa_1" enable-background="new 0 0 512 512" height="512" viewBox="0 0 512 512" width="512" xmlns="http://www.w3.org/2000/svg"><g><g><g><g><path d="m450.632 464.076v-330.803h-402.157l-48.475 13.757v317.046c0 14.693 11.911 26.605 26.605 26.605h397.422c14.694 0 26.605-11.911 26.605-26.605z" fill="#f6f9f9"/><path d="m453.507 133.273h-4.806v330.803c0 14.693-11.911 26.605-26.605 26.605h63.299c14.694 0 26.605-11.911 26.605-26.605v-317.046z" fill="#e7ecf1"/><g><g><path d="m442.055 444.897h-80.315c-6.325 0-11.452-5.127-11.452-11.452v-80.315c0-6.325 5.127-11.452 11.452-11.452h80.315c6.325 0 11.452 5.127 11.452 11.452v80.315c0 6.325-5.127 11.452-11.452 11.452z" fill="#fbe77b"/></g><path d="m442.055 297.29h-80.315c-6.325 0-11.452-5.127-11.452-11.452v-80.315c0-6.325 5.127-11.452 11.452-11.452h80.315c6.325 0 11.452 5.127 11.452 11.452v80.315c0 6.325-5.127 11.452-11.452 11.452z" fill="#fbe77b"/></g><g><g><path d="m291.148 444.897h-80.315c-6.325 0-11.452-5.127-11.452-11.452v-80.315c0-6.325 5.127-11.452 11.452-11.452h80.315c6.325 0 11.452 5.127 11.452 11.452v80.315c0 6.325-5.127 11.452-11.452 11.452z" fill="#fbe77b"/></g><path d="m291.148 297.29h-80.315c-6.325 0-11.452-5.127-11.452-11.452v-80.315c0-6.325 5.127-11.452 11.452-11.452h80.315c6.325 0 11.452 5.127 11.452 11.452v80.315c0 6.325-5.127 11.452-11.452 11.452z" fill="#fbe77b"/></g><g><g><path d="m140.241 444.897h-80.315c-6.325 0-11.452-5.127-11.452-11.452v-80.315c0-6.325 5.127-11.452 11.452-11.452h80.315c6.325 0 11.452 5.127 11.452 11.452v80.315c0 6.325-5.127 11.452-11.452 11.452z" fill="#fbe77b"/></g><path d="m140.241 297.29h-80.315c-6.325 0-11.452-5.127-11.452-11.452v-80.315c0-6.325 5.127-11.452 11.452-11.452h80.315c6.325 0 11.452 5.127 11.452 11.452v80.315c0 6.325-5.127 11.452-11.452 11.452z" fill="#fbe77b"/></g><path d="m450.632 93.217c0-14.694-11.911-26.605-26.605-26.605h-397.422c-14.694 0-26.605 11.912-26.605 26.605v53.813h450.632z" fill="#fc8086"/><path d="m485.395 66.612h-63.299c14.694 0 26.605 11.911 26.605 26.605v53.813h63.299v-53.813c0-14.693-11.911-26.605-26.605-26.605z" fill="#fb636f"/></g><g><g><path d="m94.828 267.88c-2.316 0-4.655-.723-6.675-2.217l-13.913-10.283c-3.432-2.536-4.158-7.374-1.622-10.806 2.537-3.432 7.375-4.156 10.806-1.622l10.594 7.829 21.236-27.113c2.631-3.359 7.488-3.951 10.847-1.318 3.36 2.631 3.95 7.487 1.318 10.847l-23.783 30.364c-2.219 2.834-5.49 4.319-8.808 4.319z" fill="#f6f9f9"/></g></g><g><g><path d="m245.735 267.88c-2.316 0-4.654-.723-6.674-2.216l-13.914-10.284c-3.432-2.536-4.157-7.374-1.621-10.806 2.537-3.432 7.374-4.157 10.806-1.621l10.593 7.829 21.236-27.113c2.631-3.359 7.487-3.951 10.847-1.318 3.36 2.631 3.95 7.487 1.318 10.847l-23.783 30.364c-2.219 2.833-5.49 4.318-8.808 4.318z" fill="#f6f9f9"/></g></g><g><g><path d="m396.642 267.88c-2.316 0-4.654-.723-6.674-2.216l-13.914-10.284c-3.432-2.536-4.158-7.374-1.622-10.806 2.538-3.432 7.375-4.156 10.806-1.622l10.594 7.829 21.236-27.113c2.631-3.359 7.488-3.951 10.847-1.318 3.36 2.631 3.95 7.487 1.318 10.847l-23.783 30.364c-2.22 2.834-5.491 4.319-8.808 4.319z" fill="#f6f9f9"/></g></g><g><g><path d="m94.828 415.487c-2.315 0-4.654-.723-6.673-2.215l-13.915-10.284c-3.432-2.536-4.158-7.374-1.622-10.806 2.537-3.432 7.375-4.157 10.806-1.622l10.593 7.829 21.236-27.112c2.631-3.36 7.488-3.95 10.847-1.318 3.36 2.631 3.95 7.487 1.318 10.847l-23.783 30.364c-2.218 2.832-5.489 4.317-8.807 4.317z" fill="#f6f9f9"/></g></g></g><g fill="#8c9ba6"><path d="m84.368 111.906c-14.838 0-26.867-12.029-26.867-26.867v-36.853c0-14.838 12.029-26.867 26.867-26.867 14.838 0 26.867 12.029 26.867 26.867v36.852c0 14.839-12.029 26.868-26.867 26.868z"/><path d="m198.789 111.906c-14.838 0-26.867-12.029-26.867-26.867v-36.853c0-14.838 12.029-26.867 26.867-26.867 14.838 0 26.867 12.029 26.867 26.867v36.852c.001 14.839-12.028 26.868-26.867 26.868z"/><path d="m313.211 111.906c-14.839 0-26.867-12.029-26.867-26.867v-36.853c0-14.838 12.029-26.867 26.867-26.867 14.838 0 26.867 12.029 26.867 26.867v36.852c0 14.839-12.029 26.868-26.867 26.868z"/><path d="m427.632 111.906c-14.839 0-26.867-12.029-26.867-26.867v-36.853c0-14.838 12.029-26.867 26.867-26.867 14.838 0 26.867 12.029 26.867 26.867v36.852c.001 14.839-12.028 26.868-26.867 26.868z"/></g></g></g></svg>