<svg id="Capa_1" enable-background="new 0 0 512 512" height="512" viewBox="0 0 512 512" width="512" xmlns="http://www.w3.org/2000/svg"><g><g><g><path d="m8.787 503.213c-11.716-11.716-11.716-30.711 0-42.426l174.681-174.681 42.426 42.426-174.681 174.681c-11.716 11.716-30.71 11.716-42.426 0z" fill="#3630a2"/></g></g><g><g><path d="m8.787 503.213c11.716 11.716 30.711 11.716 42.426 0l174.681-174.681-21.213-21.213z" fill="#2e2654"/></g></g><g><g><path d="m256 395.998c-77.196 0-140-62.804-140-140s62.804-140 140-140 140 62.804 140 140-62.804 140-140 140z" fill="#005edf"/></g></g><g><path d="m157.053 354.947c25.35 25.35 60.35 41.05 98.947 41.05 77.196 0 140-62.804 140-140 0-38.598-15.7-73.597-41.05-98.947z" fill="#3630a2"/></g><g><circle cx="256" cy="255.998" fill="#bceaf9" r="110"/></g><g><path d="m178.256 333.744c19.918 19.917 47.418 32.253 77.744 32.253 60.654 0 110-49.346 110-110 0-30.327-12.336-57.826-32.253-77.744z" fill="#7dd5f4"/></g><path d="m115 160h-100c-8.284 0-15-6.716-15-15v-20c0-30.327 24.673-55 55-55h20c30.327 0 55 24.673 55 55v20c0 8.284-6.716 15-15 15z" fill="#ffef4a"/><path d="m75 70h-10v90h50c8.284 0 15-6.716 15-15v-20c0-30.327-24.673-55-55-55z" fill="#ffcb00"/><path d="m65 90c-24.813 0-45-20.187-45-45s20.187-45 45-45 45 20.187 45 45-20.187 45-45 45z" fill="#ffd7aa"/><g><path d="m497 160h-100c-8.284 0-15-6.716-15-15v-20c0-30.327 24.673-55 55-55h20c30.327 0 55 24.673 55 55v20c0 8.284-6.716 15-15 15z" fill="#00ec89"/></g><path d="m457 70h-10v90h50c8.284 0 15-6.716 15-15v-20c0-30.327-24.673-55-55-55z" fill="#00cb75"/><g><path d="m447 90c-24.813 0-45-20.187-45-45s20.187-45 45-45 45 20.187 45 45-20.187 45-45 45z" fill="#ffd7aa"/></g><path d="m65 0v90c24.813 0 45-20.187 45-45s-20.187-45-45-45z" fill="#ffc58f"/><path d="m492 45c0-24.813-20.187-45-45-45v90c24.813 0 45-20.187 45-45z" fill="#ffc58f"/><g><g><path d="m497 512h-100c-8.284 0-15-6.716-15-15v-20c0-30.327 24.673-55 55-55h20c30.327 0 55 24.673 55 55v20c0 8.284-6.716 15-15 15z" fill="#bceaf9"/></g><path d="m457 422h-10v90h50c8.284 0 15-6.716 15-15v-20c0-30.327-24.673-55-55-55z" fill="#7dd5f4"/><g><path d="m447 442c-24.813 0-45-20.187-45-45s20.187-45 45-45 45 20.187 45 45-20.187 45-45 45z" fill="#ffd7aa"/></g><path d="m447 352v90c24.813 0 45-20.187 45-45s-20.187-45-45-45z" fill="#ffc58f"/></g><g><g><path d="m306 335.999h-100c-8.284 0-15-6.716-15-15v-20c0-30.327 24.673-55 55-55h20c30.327 0 55 24.673 55 55v20c0 8.284-6.716 15-15 15z" fill="#ff8493"/></g><path d="m266 245.999h-10v90h50c8.284 0 15-6.716 15-15v-20c0-30.327-24.673-55-55-55z" fill="#ff1f3d"/><g><path d="m256 265.999c-24.813 0-45-20.187-45-45s20.187-45 45-45 45 20.187 45 45-20.187 45-45 45z" fill="#ffd7aa"/></g><path d="m256 175.999v90c24.813 0 45-20.187 45-45s-20.187-45-45-45z" fill="#ffc58f"/></g></g></svg>