<svg id="Capa_1" enable-background="new 0 0 512 512" height="512" viewBox="0 0 512 512" width="512" xmlns="http://www.w3.org/2000/svg"><g><g><g><path d="m225.997 330c-1.933 0-3.882-.374-5.737-1.142-5.605-2.322-9.26-7.792-9.26-13.858v-65h-165c-24.813 0-45-20.187-45-45v-160c0-24.813 20.187-45 45-45h420c24.813 0 45 20.187 45 45v160c0 24.813-20.187 45-45 45h-153.787l-75.606 75.606c-2.87 2.87-6.707 4.394-10.61 4.394z" fill="#dcf0ff"/></g></g><g><path d="m466 0h-210v306.213l56.213-56.213h153.787c24.813 0 45-20.187 45-45v-160c0-24.813-20.187-45-45-45z" fill="#bedcf0"/></g><g><path d="m497 512h-200c-8.284 0-15-6.716-15-15 0-63.411 51.589-115 115-115s115 51.589 115 115c0 8.284-6.716 15-15 15z" fill="#aadc1e"/></g><g><path d="m421 105h-330c-8.284 0-15-6.716-15-15s6.716-15 15-15h330c8.284 0 15 6.716 15 15s-6.716 15-15 15z" fill="#5d6787"/></g><g><path d="m421 175h-330c-8.284 0-15-6.716-15-15s6.716-15 15-15h330c8.284 0 15 6.716 15 15s-6.716 15-15 15z" fill="#5d6787"/></g><g><g><path d="m215 512h-200c-8.284 0-15-6.716-15-15 0-63.411 51.589-115 115-115s115 51.589 115 115c0 8.284-6.716 15-15 15z" fill="#49acff"/></g><path d="m115 382v130h100c8.284 0 15-6.716 15-15 0-63.411-51.589-115-115-115z" fill="#1790e7"/><path d="m395 382v130h100c8.284 0 15-6.716 15-15 0-63.411-51.589-115-115-115z" fill="#8cc314"/><g><path d="m115 412c-38.599 0-70-31.402-70-70s31.401-70 70-70 70 31.402 70 70-31.401 70-70 70z" fill="#ffd5b6"/></g><path d="m115 272v140c38.599 0 70-31.402 70-70s-31.401-70-70-70z" fill="#ffc896"/></g><g><path d="m397 412c-38.599 0-70-31.402-70-70s31.401-70 70-70 70 31.402 70 70-31.401 70-70 70z" fill="#ffd5b6"/></g><g><path d="m396 272v140c38.599 0 70-31.402 70-70s-31.401-70-70-70z" fill="#ffc896"/></g><g fill="#445064"><path d="m436 90c0-8.284-6.716-15-15-15h-165v30h165c8.284 0 15-6.716 15-15z"/><path d="m421 145h-165v30h165c8.284 0 15-6.716 15-15s-6.716-15-15-15z"/></g></g></svg>