<svg id="Layer_1" xmlns="http://www.w3.org/2000/svg" xmlns:xlink="http://www.w3.org/1999/xlink" viewBox="0 0 63.4 73.8"><style>.st0{clip-path:url(#SVGID_2_);} .st1{clip-path:url(#SVGID_4_);fill:none;stroke:#48535C;stroke-width:3.12;stroke-miterlimit:10;} .st2{clip-path:url(#SVGID_4_);fill:none;stroke:#48535C;stroke-width:1.56;stroke-linecap:round;stroke-linejoin:round;stroke-miterlimit:10;} .st3{opacity:0.8;clip-path:url(#SVGID_4_);} .st4{clip-path:url(#SVGID_6_);fill:#39B54A;} .st5{opacity:0.99;clip-path:url(#SVGID_4_);} .st6{clip-path:url(#SVGID_8_);fill:#FFFFFF;}</style><defs><path id="SVGID_1_" d="M0 0h63.4v73.8H0z"/></defs><clipPath id="SVGID_2_"><use xlink:href="#SVGID_1_" overflow="visible"/></clipPath><g class="st0"><defs><path id="SVGID_3_" d="M0 0h63.4v73.8H0z"/></defs><clipPath id="SVGID_4_"><use xlink:href="#SVGID_3_" overflow="visible"/></clipPath><path class="st1" d="M35 72.3H9.2c-4.2 0-7.6-3.4-7.6-7.6V9.2C1.6 5 5 1.6 9.2 1.6H35c4.2 0 7.6 3.4 7.6 7.6v55.4c.1 4.3-3.4 7.7-7.6 7.7z"/><path class="st2" d="M15.2 9.2H29"/><circle class="st2" cx="22.1" cy="63.3" r="4"/><g class="st3"><defs><path id="SVGID_5_" d="M21.9 16.1h41.5v41.5H21.9z"/></defs><clipPath id="SVGID_6_"><use xlink:href="#SVGID_5_" overflow="visible"/></clipPath><path class="st4" d="M63.4 36.9c0 11.5-9.3 20.8-20.8 20.8s-20.8-9.3-20.8-20.8 9.3-20.8 20.8-20.8 20.8 9.3 20.8 20.8"/></g><g class="st5"><defs><path id="SVGID_7_" d="M31 26.9h24.7v20H31z"/></defs><clipPath id="SVGID_8_"><use xlink:href="#SVGID_7_" overflow="visible"/></clipPath><path class="st6" d="M55.7 31.4l-4.5-4.5-11 11-4.7-4.7-4.5 4.5 9.2 9.2z"/></g></g></svg>