<svg height="512" viewBox="0 0 58 58" width="512" xmlns="http://www.w3.org/2000/svg"><g id="Page-1" fill="none" fill-rule="evenodd"><g id="034---Dog-Walking" fill-rule="nonzero"><path id="Shape" d="m36 33c-.5522847 0-1-.4477153-1-1v-6c0-1.6568542-1.3431458-3-3-3h-8c-.5522847 0-1-.4477153-1-1s.4477153-1 1-1h8c2.7600532.0033061 4.9966939 2.2399468 5 5v6c0 .5522847-.4477153 1-1 1z" fill="#464f5d"/><path id="Shape" d="m27.95 3.5c.0345416-.31336961-.0807169-.6246786-.311-.84-1.8834686-1.7095754-4.3353616-2.65768346-6.879-2.66h-7.94c-7.08029049 0-12.82 5.73970951-12.82 12.82v6.18c0 1.6568542 1.34314575 3 3 3 3 0 7-4 12-1s11 2 11 2zm-15.95 9.5c.0010228.9914086.1049124 1.9800355.31 2.95-.3918733-.0435465-.7857267-.0669106-1.18-.07-2.1848905.0789311-4.33266816.5886884-6.32 1.5-.25.09-.54.21-.81.31v-4.87c.00606067-4.86863887 3.95136113-8.81393933 8.82-8.82h2.46c-2.1175768 2.52099933-3.278934 5.70765008-3.28 9z" fill="#802f34"/><path id="Shape" d="m31.839 21.118c3.2835725-2.361658 4.8211755-6.4687617 3.895816-10.4061449-.9253596-3.93738314-4.1314445-6.92963038-8.1232388-7.58143944-3.9917943-.65180907-7.983167 1.16518518-10.1129179 4.60370781-2.1297508 3.43852263-1.9784537 7.82140223.3833407 11.10487653.3856859.5356902.820939 1.0338875 1.3 1.488 3.4940805 3.2399902 8.7867152 3.5707537 12.657.791z" fill="#cc4b4c"/><path id="Shape" d="m20 14c-.5522847 0-1-.4477153-1-1 0-4.573 3.112-6.559 4.757-6.97.5354401-.13586205 1.079638.18805994 1.2155.7235s-.1880599 1.07963795-.7235 1.2155c-.149.039-3.249.922-3.249 5.031 0 .5522847-.4477153 1-1 1z" fill="#fb7b76"/><path id="Shape" d="m52 22s0-4-5-4l-1.73-4.33c-.1712951-.4384956-.6252328-.6981381-1.0900408-.6234799-.4648081.0746583-.8146015.4633976-.8399592.9334799-.1576653 3.5860192-1.3145207 7.0565854-3.34 10.02-.3769153.5262382-.7877893 1.0273041-1.23 1.5-1.2245388 1.2892105-2.6538142 2.3670801-4.23 3.19-5.25 2.81-12.15 3.31-18.54 3.31 0 0-3.03.76-3.82-6.97-.0592482-.4843918-.4594715-.855277-.9469648-.8775483s-.9198669.3105766-1.0230352.7875483c-.5987569 3.3658388-.32680814 6.8288825.79 10.06-1.8797443 2.9932168-2.24980544 6.6938282-1 10l-2.2 2.93c-.51774495.6931925-.79828048 1.5347991-.8 2.4v5.67c.0032948 1.1032019.89679813 1.9967052 2 2h4c.5522847 0 1-.4477153 1-1v-.56c-.0020027-.8615814-.5531596-1.6259595-1.37-1.9l-.54-.18c-.2738428-.0911789-.4943285-.297212-.6038352-.5642546-.1095066-.2670427-.097152-.5685571.0338352-.8257454l.26-.53c.1366457-.2689381.3858365-.4631603.68-.53 1.59-.34 6.85-1.84 8.54-6.91 0 0 6 2 17 1l2.62 10.49c.2219235.8899324 1.0228202 1.5133108 1.94 1.51h4.44c.5522847 0 1-.4477153 1-1v-.56c-.0020027-.8615814-.5531596-1.6259595-1.37-1.9l-.95-.31c-.4046466-.1411508-.6768629-.5214529-.68-.95v-8.28s2.59-2.59 3.67-8.15c.3386234-1.7725396.4894568-3.5758366.45-5.38 0-.79-.04-1.61-.12-2.47 0 0 9 .92 9-5z" fill="#cbb292"/><path id="Shape" d="m49.12 31.47c.0394568 1.8041634-.1113766 3.6074604-.45 5.38l-14.13-8.16c1.5761858-.8229199 3.0054612-1.9007895 4.23-3.19z" fill="#e64c3c"/></g></g></svg>